<?xml version="1.0" encoding="UTF-8"?>
<svg width="250px" height="200px" viewBox="0 0 250 200" version="1.1" xmlns="http://www.w3.org/2000/svg" xmlns:xlink="http://www.w3.org/1999/xlink">
    <!-- Generator: Sketch 46.1 (44463) - http://www.bohemiancoding.com/sketch -->
    <title>create-bean-stalk</title>
    <desc>Created with Sketch.</desc>
    <defs>
        <rect id="path-1" x="0" y="0" width="823.846154" height="211"></rect>
        <linearGradient x1="92.5139073%" y1="39.2355283%" x2="15.7715355%" y2="55.1774461%" id="linearGradient-3">
            <stop stop-color="#88B144" offset="0%"></stop>
            <stop stop-color="#507A21" offset="100%"></stop>
        </linearGradient>
        <circle id="path-4" cx="48" cy="23" r="163"></circle>
        <filter x="-4.0%" y="-3.7%" width="109.2%" height="109.2%" filterUnits="objectBoundingBox" id="filter-5">
            <feOffset dx="2" dy="3" in="SourceAlpha" result="shadowOffsetOuter1"></feOffset>
            <feGaussianBlur stdDeviation="4.5" in="shadowOffsetOuter1" result="shadowBlurOuter1"></feGaussianBlur>
            <feColorMatrix values="0 0 0 0 0   0 0 0 0 0   0 0 0 0 0  0 0 0 0.4 0" type="matrix" in="shadowBlurOuter1"></feColorMatrix>
        </filter>
    </defs>
    <g id="exports" stroke="none" stroke-width="1" fill="none" fill-rule="evenodd">
        <g id="Group-4" transform="translate(-418.000000, -739.000000)">
            <g id="beanStalk" transform="translate(418.000000, 738.000000)">
                <g id="button-/-create-bean-stalk">
                    <g>
                        <g id="button-bg-/-green">
                            <g id="button-bg">
                                <mask id="mask-2" fill="white">
                                    <use xlink:href="#path-1"></use>
                                </mask>
                                <g id="Mask"></g>
                                <g id="Oval" mask="url(#mask-2)">
                                    <use fill="black" fill-opacity="1" filter="url(#filter-5)" xlink:href="#path-4"></use>
                                    <use fill="url(#linearGradient-3)" fill-rule="evenodd" xlink:href="#path-4"></use>
                                </g>
                            </g>
                        </g>
                        <g id="Group" transform="translate(26.000000, 3.096774)" fill="#FFFFFF">
                            <path d="M38.6737922,130.409578 C48.9547322,118.234963 57.9065368,113.788044 68.4537912,100.561878 C79.0010456,87.3357127 81.5919688,70.1058671 85.4136559,59.3707073 C89.6807049,78.6117402 88.9645147,88.0881553 87.2823705,96.662574 C85.6002264,105.236993 85.0089181,117.080594 66.0389062,130.409578 C47.0688944,143.738562 32.8248348,153.047478 32.6593287,161.564256 C25.2612046,148.620062 28.3928523,142.584193 38.6737922,130.409578 Z" id="Path-2-Copy" transform="translate(58.600373, 110.467482) rotate(24.000000) translate(-58.600373, -110.467482) "></path>
                            <path d="M50.3723192,88.6593154 C48.0234127,86.9589528 45.6449431,85.2656014 43.2862163,83.5927118 C24.4889056,70.2610174 21.8052794,60.7982566 20.1384493,52.2220941 C18.4716193,43.6459316 25.6972506,12.1845445 39.5447619,7.11114606 C35.1227422,17.5337389 35.875591,35.2154447 41.0220211,49.8081014 C44.7639743,60.4183767 56.0856212,66.5921606 65.9023164,73.8524418 C60.7309522,78.7036369 55.6196055,83.2247652 50.3723192,88.6593154 Z" id="Combined-Shape" transform="translate(42.902223, 47.885280) rotate(24.000000) translate(-42.902223, -47.885280) "></path>
                            <path d="M38.3864716,103.158797 C48.6674116,90.9841819 57.6192162,86.5372626 68.1664706,73.3110972 C78.713725,60.0849317 81.3046482,42.8550861 85.1263353,32.1199264 C89.3933843,51.3609593 88.6771941,60.8373744 86.9950499,69.411793 C85.3129058,77.9862117 84.7215975,89.8298134 65.7515856,103.158797 C46.7815738,116.487781 32.5375142,125.796697 32.3720081,134.313475 C24.973884,121.369281 28.1055317,115.333412 38.3864716,103.158797 Z" id="Path-2-Copy-2" transform="translate(58.313053, 83.216701) rotate(24.000000) translate(-58.313053, -83.216701) "></path>
                            <path d="M72.2404618,79.8735563 C70.594716,78.7143095 68.901865,77.5234988 67.1691824,76.2985984 C48.3919162,63.0242217 47.8066159,51.2291416 46.1415633,42.6898512 C44.4765106,34.1505607 43.7675973,24.7129692 47.9912908,5.55076412 C51.7741474,16.2419434 54.3387455,33.4012007 64.778834,46.5731804 C71.8927385,55.5486029 78.273387,60.4644368 84.8366638,66.5217829 C80.5173124,71.70329 76.3510455,75.9485816 72.2404572,79.8735534 Z" id="Combined-Shape" transform="translate(64.836933, 42.712075) rotate(24.000000) translate(-64.836933, -42.712075) "></path>
                            <path d="M32.8293844,90.2965137 C32.0401704,89.8730166 31.2505728,89.5146154 30.468833,89.2337082 C22.123804,86.23504 14.7273065,80.3483341 11.1645135,74.6974837 C7.60172047,69.0466334 5.11166126,65.7381572 7.96680269,53.1350286 C10.5239463,60.1666988 14.9722869,67.1289785 22.123804,72.5125344 C27.1368769,76.2863012 32.5601171,79.0672626 37.7246605,83.1397367 C36.0203915,85.4838682 34.4001047,87.8790416 32.8293869,90.2965151 Z" id="Combined-Shape-Copy" transform="translate(22.224922, 71.715541) rotate(24.000000) translate(-22.224922, -71.715541) "></path>
                            <path d="M21.60845,141.375343 C18.4456645,136.083781 16.4605508,134.28434 19.6955906,126.645067 C22.9306304,119.005795 53.4586762,99.3049237 59.0427372,93.8914724 C56.4296372,98.3097444 48.3904255,105.531792 45.3908832,107.807201 C35.6857799,115.169349 28.1451231,125.375685 26.2537957,128.480114 C23.4034657,133.158653 22.5516982,134.106088 21.60845,141.375343 Z" id="Path-3" transform="translate(38.542737, 117.633408) rotate(24.000000) translate(-38.542737, -117.633408) "></path>
                        </g>
                    </g>
                </g>
            </g>
        </g>
    </g>
</svg>