<?xml version="1.0" encoding="UTF-8"?>
<svg width="250px" height="200px" viewBox="0 0 250 200" version="1.1" xmlns="http://www.w3.org/2000/svg" xmlns:xlink="http://www.w3.org/1999/xlink">
    <!-- Generator: Sketch 46.1 (44463) - http://www.bohemiancoding.com/sketch -->
    <title>create-green-potion</title>
    <desc>Created with Sketch.</desc>
    <defs>
        <rect id="path-1" x="0" y="0" width="823.846154" height="204"></rect>
        <linearGradient x1="92.5139073%" y1="39.2355283%" x2="15.7715355%" y2="55.1774461%" id="linearGradient-3">
            <stop stop-color="#88B144" offset="0%"></stop>
            <stop stop-color="#507A21" offset="100%"></stop>
        </linearGradient>
        <circle id="path-4" cx="48" cy="23" r="163"></circle>
        <filter x="-4.0%" y="-3.7%" width="109.2%" height="109.2%" filterUnits="objectBoundingBox" id="filter-5">
            <feOffset dx="2" dy="3" in="SourceAlpha" result="shadowOffsetOuter1"></feOffset>
            <feGaussianBlur stdDeviation="4.5" in="shadowOffsetOuter1" result="shadowBlurOuter1"></feGaussianBlur>
            <feColorMatrix values="0 0 0 0 0   0 0 0 0 0   0 0 0 0 0  0 0 0 0.4 0" type="matrix" in="shadowBlurOuter1"></feColorMatrix>
        </filter>
        <filter x="-13.9%" y="-12.1%" width="129.4%" height="125.5%" filterUnits="objectBoundingBox" id="filter-6">
            <feOffset dx="1" dy="1" in="SourceAlpha" result="shadowOffsetOuter1"></feOffset>
            <feGaussianBlur stdDeviation="6" in="shadowOffsetOuter1" result="shadowBlurOuter1"></feGaussianBlur>
            <feColorMatrix values="0 0 0 0 0   0 0 0 0 0   0 0 0 0 0  0 0 0 0.2 0" type="matrix" in="shadowBlurOuter1" result="shadowMatrixOuter1"></feColorMatrix>
            <feMerge>
                <feMergeNode in="shadowMatrixOuter1"></feMergeNode>
                <feMergeNode in="SourceGraphic"></feMergeNode>
            </feMerge>
        </filter>
    </defs>
    <g id="exports" stroke="none" stroke-width="1" fill="none" fill-rule="evenodd">
        <g id="Group-4" transform="translate(0.000000, -247.000000)">
            <g id="greenPotion" transform="translate(0.000000, 246.000000)">
                <g id="button-/-create-green-potion">
                    <g>
                        <g id="button-bg-/-green">
                            <g id="button-bg">
                                <mask id="mask-2" fill="white">
                                    <use xlink:href="#path-1"></use>
                                </mask>
                                <g id="Mask"></g>
                                <g id="Oval" mask="url(#mask-2)">
                                    <use fill="black" fill-opacity="1" filter="url(#filter-5)" xlink:href="#path-4"></use>
                                    <use fill="url(#linearGradient-3)" fill-rule="evenodd" xlink:href="#path-4"></use>
                                </g>
                            </g>
                        </g>
                        <g id="Group-4" filter="url(#filter-6)" transform="translate(19.000000, 20.000000)" fill="#FFFFFF">
                            <path d="M42,5.98214286 C42,1.57372709 45.5754162,-2 49.9859155,-2 L76.0140845,-2 C80.4245838,-2 84,1.57372709 84,5.98214286 C84,9.19775869 82.0841261,12.0189193 79.2676056,13.2742374 L79.2676056,132.431111 C78.2968435,140.62013 71.3922926,147 63,147 C54.6077074,147 47.7031565,140.62013 46.826368,132.431111 L46.7323944,13.2742374 C43.9158739,12.0189193 42,9.19775869 42,5.98214286 Z M75.1267606,10.0849915 L76.7853094,9.74848289 C78.5605502,9.38829826 79.8591549,7.81789995 79.8591549,5.98214286 C79.8591549,3.8595723 78.1376583,2.13888889 76.0140845,2.13888889 L49.9859155,2.13888889 C47.8623417,2.13888889 46.1408451,3.8595723 46.1408451,5.98214286 C46.1408451,7.81789995 47.4394498,9.38829826 49.2146906,9.74848289 L50.8732394,10.0849915 L50.8732394,128.292222 L50.8759431,130.404626 C50.8732394,137.403241 56.3050219,142.861111 63,142.861111 C69.6949781,142.861111 75.1267606,137.403241 75.1267606,130.665185 C75.1267606,130.6072 75.1112323,129.816212 75.0801759,128.292222 L75.1267606,10.0849915 Z" id="Combined-Shape-Copy-3" fill-rule="nonzero" transform="translate(63.000000, 72.500000) rotate(38.000000) translate(-63.000000, -72.500000) "></path>
                            <path d="M37,66.7778274 L37,121.751075 L37.0020065,123.527097 C37,129.411246 41.0312532,134 46,134 C50.9687468,134 55,129.411246 55,123.746165 C55,123.697413 54.9884756,123.032383 54.9654267,121.751075 L54.987905,53 L37,66.7778274 Z" id="Path" transform="translate(46.000000, 93.500000) rotate(38.000000) translate(-46.000000, -93.500000) "></path>
                        </g>
                    </g>
                </g>
            </g>
        </g>
    </g>
</svg>